<?xml version="1.0" standalone="no"?>
<!DOCTYPE svg PUBLIC "-//W3C//DTD SVG 20010904//EN"
 "http://www.w3.org/TR/2001/REC-SVG-20010904/DTD/svg10.dtd">
<svg version="1.0" xmlns="http://www.w3.org/2000/svg"
 width="700.000000pt" height="700.000000pt" viewBox="0 0 700.000000 700.000000"
 preserveAspectRatio="xMidYMid meet">
<metadata>
Created by potrace 1.11, written by Peter Selinger 2001-2013
</metadata>
<g transform="translate(0.000000,700.000000) scale(0.100000,-0.100000)"
fill="#000000" stroke="none">
<path d="M3381 6980 c-118 -42 -198 -133 -226 -255 -6 -27 -11 -107 -10 -177
1 -83 -3 -128 -9 -129 -6 0 -256 -2 -556 -3 -534 -2 -546 -2 -585 -23 -80 -42
-129 -114 -134 -199 -1 -6 -19 -14 -41 -17 -87 -11 -172 -96 -186 -185 -5 -29
-11 -42 -23 -42 -67 0 -156 -62 -193 -134 -19 -36 -22 -58 -23 -191 -1 -87 3
-170 10 -197 14 -55 50 -112 82 -129 l23 -12 0 -2311 0 -2311 -30 -20 c-16
-11 -42 -42 -57 -70 -26 -49 -27 -54 -28 -215 0 -190 10 -232 73 -292 76 -74
-98 -68 2019 -68 1422 0 1915 3 1944 12 54 16 113 69 140 125 21 43 23 61 23
198 -1 82 -3 164 -7 182 -8 46 -43 105 -79 130 l-31 22 0 2304 0 2304 41 37
c62 56 74 100 76 271 2 176 -9 230 -61 285 -42 46 -76 65 -133 75 -37 6 -46
16 -41 47 3 20 -41 97 -70 125 -38 36 -95 63 -133 63 -22 0 -26 6 -36 54 -13
63 -62 126 -124 159 -41 21 -45 22 -588 22 -301 1 -551 5 -555 9 -4 4 -8 69
-9 144 -1 180 -23 250 -105 329 -94 91 -240 125 -358 83z"/>
</g>
</svg>
