<?xml version="1.0" encoding="UTF-8" standalone="no"?>
<svg
   xmlns:dc="http://purl.org/dc/elements/1.1/"
   xmlns:cc="http://creativecommons.org/ns#"
   xmlns:rdf="http://www.w3.org/1999/02/22-rdf-syntax-ns#"
   xmlns:svg="http://www.w3.org/2000/svg"
   xmlns="http://www.w3.org/2000/svg"
   xmlns:sodipodi="http://sodipodi.sourceforge.net/DTD/sodipodi-0.dtd"
   xmlns:inkscape="http://www.inkscape.org/namespaces/inkscape"
   height="512pt"
   viewBox="-102 0 512 512"
   width="512pt"
   id="svg2"
   version="1.1"
   inkscape:version="0.91 r13725"
   sodipodi:docname="booth-black.svg">
  <metadata
     id="metadata110">
    <rdf:RDF>
      <cc:Work
         rdf:about="">
        <dc:format>image/svg+xml</dc:format>
        <dc:type
           rdf:resource="http://purl.org/dc/dcmitype/StillImage" />
        <dc:title></dc:title>
      </cc:Work>
    </rdf:RDF>
  </metadata>
  <defs
     id="defs108" />
  <sodipodi:namedview
     pagecolor="#ffffff"
     bordercolor="#666666"
     borderopacity="1"
     objecttolerance="10"
     gridtolerance="10"
     guidetolerance="10"
     inkscape:pageopacity="0"
     inkscape:pageshadow="2"
     inkscape:window-width="1920"
     inkscape:window-height="1005"
     id="namedview106"
     showgrid="false"
     inkscape:zoom="1.0429825"
     inkscape:cx="282.0901"
     inkscape:cy="280.99674"
     inkscape:window-x="-9"
     inkscape:window-y="-9"
     inkscape:window-maximized="1"
     inkscape:current-layer="svg2" />
  <g
     id="g4334">
    <path
       style="fill:#ececec"
       id="path4"
       fill="#e8edfc"
       d="m153.601562 8.535156c9.425782 0 17.066407 7.640625 17.066407 17.066406v42.664063h-34.132813v-42.664063c0-9.425781 7.640625-17.066406 17.066406-17.066406zm0 0" />
    <path
       style="fill:#cccccc"
       id="path6"
       fill="#cad9fc"
       d="m281.601562 76.800781v25.597657h-256v-25.597657c.011719-4.707031 3.824219-8.519531 8.53125-8.535156 4.707032-.011719 8.519532-3.824219 8.535157-8.53125.011719-4.707031 3.824219-8.519531 8.53125-8.535156h204.800781c4.707031.015625 8.519531 3.828125 8.535156 8.535156.011719 4.707031 3.824219 8.519531 8.53125 8.53125 4.707032.015625 8.519532 3.828125 8.535156 8.535156zm0 0" />
    <path
       style="fill:#ececec"
       id="path8"
       fill="#e8edfc"
       d="m256 85.332031v17.066407h-230.398438v-25.597657c.011719-4.707031 3.824219-8.519531 8.53125-8.535156 4.707032-.011719 8.519532-3.824219 8.535157-8.53125h187.730469c4.707031.011719 8.519531 3.824219 8.535156 8.53125.011718 4.707031 3.824218 8.519531 8.53125 8.535156 4.710937.011719 8.523437 3.824219 8.535156 8.53125zm0 0" />
    <path
       style="fill:#cccccc"
       id="path10"
       fill="#cad9fc"
       d="m17.066406 110.933594h273.066406v375.464844h-273.066406zm0 0" />
    <path
       style="fill:#f2f2f2"
       id="path12"
       fill="#e8edfc"
       d="m17.066406 110.933594h247.46875v375.464844h-247.46875zm0 0" />
    <path
       style="fill:#cccccc"
       id="path14"
       fill="#cad9fc"
       d="m51.199219 213.332031h102.402343v256h-102.402343zm0 0" />
    <path
       style="fill:#cccccc"
       id="path16"
       fill="#cad9fc"
       d="m153.601562 213.332031h102.398438v256h-102.398438zm0 0" />
    <path
       style="fill:#cccccc"
       id="path18"
       fill="#cad9fc"
       d="m17.066406 85.332031h273.066406c4.714844 0 8.535157 3.820313 8.535157 8.535157v17.066406c0 4.710937-3.820313 8.53125-8.535157 8.53125h-273.066406c-4.710937 0-8.53125-3.820313-8.53125-8.53125v-17.066406c0-4.714844 3.820313-8.535157 8.53125-8.535157zm0 0" />
    <path
       style="fill:#cccccc"
       id="path20"
       fill="#cad9fc"
       d="m256 162.132812v51.199219h-204.800781v-51.199219c0-9.300781 3.839843-17.066406 8.535156-17.066406h187.730469c4.695312 0 8.535156 7.765625 8.535156 17.066406zm0 0" />
    <path
       style="fill:#ececec"
       id="path22"
       fill="#e8edfc"
       d="m230.398438 162.132812v51.199219h-179.199219v-51.199219c0-9.300781 3.839843-17.066406 8.535156-17.066406h162.132813c4.691406 0 8.53125 7.765625 8.53125 17.066406zm0 0" />
    <path
       style="fill:#cccccc"
       id="path24"
       fill="#cad9fc"
       d="m187.734375 392.535156h34.132813c4.710937 0 8.53125 3.820313 8.53125 8.53125v34.132813c0 4.714843-3.820313 8.535156-8.53125 8.535156h-34.132813c-4.714844 0-8.535156-3.820313-8.535156-8.535156v-34.132813c0-4.710937 3.820312-8.53125 8.535156-8.53125zm0 0" />
    <path
       style="fill:#e6e6e6"
       id="path26"
       fill="#e8edfc"
       d="m85.332031 238.933594h34.132813c4.714844 0 8.535156 3.820312 8.535156 8.53125v34.136718c0 4.710938-3.820312 8.53125-8.535156 8.53125h-34.132813c-4.710937 0-8.53125-3.820312-8.53125-8.53125v-34.136718c0-4.710938 3.820313-8.53125 8.53125-8.53125zm0 0" />
    <path
       style="fill:#ececec"
       id="path28"
       fill="#f5f5f5"
       d="m110.933594 247.464844v34.136718c0 4.691407-5.121094 8.53125-11.378906 8.53125h-11.378907c-6.253906 0-11.375-3.839843-11.375-8.53125v-34.136718c0-4.691406 5.121094-8.53125 11.375-8.53125h11.378907c6.257812 0 11.378906 3.839844 11.378906 8.53125zm0 0" />
    <path
       style="fill:#cccccc"
       id="path30"
       fill="#cad9fc"
       d="m85.332031 315.734375h34.132813c4.714844 0 8.535156 3.820313 8.535156 8.53125v34.132813c0 4.714843-3.820312 8.535156-8.535156 8.535156h-34.132813c-4.710937 0-8.53125-3.820313-8.53125-8.535156v-34.132813c0-4.710937 3.820313-8.53125 8.53125-8.53125zm0 0" />
    <path
       style="fill:#cccccc"
       id="path32"
       fill="#cad9fc"
       d="m85.332031 392.535156h34.132813c4.714844 0 8.535156 3.820313 8.535156 8.53125v34.132813c0 4.714843-3.820312 8.535156-8.535156 8.535156h-34.132813c-4.710937 0-8.53125-3.820313-8.53125-8.535156v-34.132813c0-4.710937 3.820313-8.53125 8.53125-8.53125zm0 0" />
    <path
       style="fill:#cccccc"
       id="path34"
       fill="#cad9fc"
       d="m187.734375 238.933594h34.132813c4.710937 0 8.53125 3.820312 8.53125 8.53125v34.136718c0 4.710938-3.820313 8.53125-8.53125 8.53125h-34.132813c-4.714844 0-8.535156-3.820312-8.535156-8.53125v-34.136718c0-4.710938 3.820312-8.53125 8.535156-8.53125zm0 0" />
    <path
       style="fill:#cccccc"
       id="path36"
       fill="#cad9fc"
       d="m187.734375 315.734375h34.132813c4.710937 0 8.53125 3.820313 8.53125 8.53125v34.132813c0 4.714843-3.820313 8.535156-8.53125 8.535156h-34.132813c-4.714844 0-8.535156-3.820313-8.535156-8.535156v-34.132813c0-4.710937 3.820312-8.53125 8.535156-8.53125zm0 0" />
    <path
       style="fill:#ececec"
       id="path38"
       fill="#e8edfc"
       d="m213.332031 401.066406v34.132813c0 4.695312-5.117187 8.535156-11.375 8.535156h-11.378906c-6.257813 0-11.378906-3.839844-11.378906-8.535156v-34.132813c0-4.691406 5.121093-8.53125 11.378906-8.53125h11.378906c6.257813 0 11.375 3.839844 11.375 8.53125zm0 0" />
    <path
       style="fill:#ececec"
       id="path40"
       fill="#e8edfc"
       d="m110.933594 324.265625v34.132813c0 4.695312-5.121094 8.535156-11.378906 8.535156h-11.378907c-6.253906 0-11.375-3.839844-11.375-8.535156v-34.132813c0-4.691406 5.121094-8.53125 11.375-8.53125h11.378907c6.257812 0 11.378906 3.839844 11.378906 8.53125zm0 0" />
    <path
       style="fill:#ececec"
       id="path42"
       fill="#e8edfc"
       d="m110.933594 401.066406v34.132813c0 4.695312-5.121094 8.535156-11.378906 8.535156h-11.378907c-6.253906 0-11.375-3.839844-11.375-8.535156v-34.132813c0-4.691406 5.121094-8.53125 11.375-8.53125h11.378907c6.257812 0 11.378906 3.839844 11.378906 8.53125zm0 0" />
    <path
       style="fill:#ececec"
       id="path44"
       fill="#e8edfc"
       d="m213.332031 247.464844v34.136718c0 4.691407-5.117187 8.53125-11.375 8.53125h-11.378906c-6.257813 0-11.378906-3.839843-11.378906-8.53125v-34.136718c0-4.691406 5.121093-8.53125 11.378906-8.53125h11.378906c6.257813 0 11.375 3.839844 11.375 8.53125zm0 0" />
    <path
       style="fill:#ececec"
       id="path46"
       fill="#e8edfc"
       d="m213.332031 324.265625v34.132813c0 4.695312-5.117187 8.535156-11.375 8.535156h-11.378906c-6.257813 0-11.378906-3.839844-11.378906-8.535156v-34.132813c0-4.691406 5.121093-8.53125 11.378906-8.53125h11.378906c6.257813 0 11.375 3.839844 11.375 8.53125zm0 0" />
    <path
       style="fill:#cccccc"
       id="path48"
       fill="#cad9fc"
       d="m17.066406 469.332031h273.066406c4.714844 0 8.535157 3.820313 8.535157 8.535157v17.066406c0 4.710937-3.820313 8.53125-8.535157 8.53125h-273.066406c-4.710937 0-8.53125-3.820313-8.53125-8.53125v-17.066406c0-4.714844 3.820313-8.535157 8.53125-8.535157zm0 0" />
    <path
       style="fill:#ececec"
       id="path50"
       fill="#e8edfc"
       d="m17.066406 85.332031h247.46875c4.710938 0 8.53125 3.820313 8.53125 8.535157v17.066406c0 4.710937-3.820312 8.53125-8.53125 8.53125h-247.46875c-4.710937 0-8.53125-3.820313-8.53125-8.53125v-17.066406c0-4.714844 3.820313-8.535157 8.53125-8.535157zm0 0" />
    <path
       style="fill:#f2f2f2"
       id="path52"
       fill="#e8edfc"
       d="m17.066406 469.332031h247.46875c4.710938 0 8.53125 3.820313 8.53125 8.535157v17.066406c0 4.710937-3.820312 8.53125-8.53125 8.53125h-247.46875c-4.710937 0-8.53125-3.820313-8.53125-8.53125v-17.066406c0-4.714844 3.820313-8.535157 8.53125-8.535157zm0 0" />
    <path
       id="path54"
       fill="#fff"
       d="m34.132812 494.933594v-17.066406c.015626-4.707032 3.828126-8.519532 8.535157-8.535157v-349.867187c-4.707031-.011719-8.519531-3.824219-8.535157-8.53125v-17.066406c.015626-4.707032 3.828126-8.519532 8.535157-8.535157h8.53125v-8.53125c.015625-4.707031 3.828125-8.519531 8.535156-8.535156 4.707031-.011719 8.519531-3.824219 8.53125-8.53125.015625-4.707031 3.828125-8.519531 8.535156-8.535156h-25.601562c-4.707031.015625-8.519531 3.828125-8.53125 8.535156-.015625 4.707031-3.828125 8.519531-8.535157 8.53125-4.707031.015625-8.519531 3.828125-8.53125 8.535156v8.53125h-8.535156c-4.707031.015625-8.519531 3.828125-8.53125 8.535157v17.066406c.011719 4.707031 3.824219 8.519531 8.53125 8.53125v349.867187c-4.707031.015625-8.519531 3.828125-8.53125 8.535157v17.066406c.011719 4.707031 3.824219 8.519531 8.53125 8.53125h25.601563c-4.707031-.011719-8.519531-3.824219-8.535157-8.53125zm0 0" />
    <path
       style="fill:#000000"
       id="path56"
       fill="#428dff"
       d="m290.132812 512h-273.066406c-9.421875-.011719-17.0546872-7.644531-17.066406-17.066406v-17.066406c.0117188-9.421876 7.644531-17.054688 17.066406-17.066407h273.066406c9.421876.011719 17.054688 7.644531 17.066407 17.066407v17.066406c-.011719 9.421875-7.644531 17.054687-17.066407 17.066406zm-273.066406-34.132812v17.066406h273.085938l-.019532-17.066406zm0 0" />
    <path
       inkscape:connector-curvature="0"
       style="fill:#000000"
       id="path58"
       d="M 288.53281,128 15.466406,128 C 6.044531,127.98828 -1.588281,120.35547 -1.6,110.93359 l 0,-17.066402 C -1.58828,84.445312 6.044531,76.8125 15.466406,76.800781 l 273.066404,0 c 9.42188,0.01172 17.05469,7.644531 17.06641,17.066407 l 0,17.066402 c -0.0117,9.42188 -7.64453,17.05469 -17.06641,17.06641 z M 15.466406,93.867188 l 0,17.066402 273.085934,0 -0.0195,-17.066402 z m 0,0" />
    <path
       id="path60"
       fill="#fff"
       d="m25.601562 119.464844v349.867187h-17.066406v-349.867187zm0 0" />
    <path
       d="m 17.066406,162.13281 c 4.707032,-0.0117 8.519532,-3.82422 8.535156,-8.53125 l 0,-34.13672 -17.066406,0 0,34.13672 c 0.011719,4.70703 3.824219,8.51953 8.53125,8.53125 z m 0,0"
       id="path64"
       style="fill:#000000"
       inkscape:connector-curvature="0" />
    <path
       d="m 8.535156,469.33203 17.066406,0 0,-247.46484 c 0,-4.71485 -3.820312,-8.53516 -8.535156,-8.53516 -4.710937,0 -8.53125,3.82031 -8.53125,8.53516 z m 0,0"
       id="path66"
       style="fill:#000000"
       inkscape:connector-curvature="0" />
    <path
       d="m 25.601562,187.73437 c -0.03516,-2.26171 -0.917968,-4.42187 -2.476562,-6.05859 l -1.28125,-1.02344 c -0.472656,-0.32422 -0.992188,-0.58203 -1.535156,-0.76953 -0.484375,-0.24609 -1,-0.41797 -1.535156,-0.51172 -0.5625,-0.0977 -1.132813,-0.15234 -1.707032,-0.17187 -2.257812,0.0312 -4.421875,0.91797 -6.058594,2.47656 -2.070312,1.99219 -2.980468,4.90625 -2.410156,7.72656 0.570313,2.81641 2.542969,5.14844 5.226563,6.1836 1.027343,0.43359 2.128906,0.66797 3.242187,0.67968 2.269532,0.0234 4.453125,-0.86718 6.058594,-2.47265 1.605469,-1.60547 2.5,-3.78906 2.476562,-6.0586 z m 0,0"
       id="path68"
       style="fill:#000000"
       inkscape:connector-curvature="0" />
    <path
       d="m 290.13281,477.86719 -273.066404,0 c -4.710937,0 -8.53125,-3.82032 -8.53125,-8.53516 0,-4.71094 3.820313,-8.53125 8.53125,-8.53125 l 264.535154,0 0,-332.80078 -264.535154,0 c -4.710937,0 -8.53125,-3.82031 -8.53125,-8.53516 0,-4.71093 3.820313,-8.53125 8.53125,-8.53125 l 273.066404,0 c 4.71485,0 8.53516,3.82032 8.53516,8.53125 l 0,349.86719 c 0,4.71485 -3.82031,8.53516 -8.53516,8.53516 z m 0,0"
       id="path70"
       style="fill:#000000"
       inkscape:connector-curvature="0" />
    <path
       d="m 153.60156,477.86719 -102.402341,0 c -4.710938,0 -8.53125,-3.82032 -8.53125,-8.53516 l 0,-315.73047 c 0.01172,-9.42187 7.644531,-17.05469 17.066406,-17.0664 l 93.867185,0 c 4.71094,0 8.53125,3.82031 8.53125,8.53125 l 0,324.26562 c 0,4.71484 -3.82031,8.53516 -8.53125,8.53516 z m -93.867185,-17.06641 85.332035,0 0,-307.19922 -85.332035,0 z m 0,0"
       id="path72"
       style="fill:#000000"
       inkscape:connector-curvature="0" />
    <path
       d="m 256,477.86719 -102.39844,0 c -4.71484,0 -8.53515,-3.82032 -8.53515,-8.53516 l 0,-324.26562 c 0,-4.71094 3.82031,-8.53125 8.53515,-8.53125 l 93.86328,0 c 9.42188,0.0117 17.05469,7.64453 17.07032,17.0664 l 0,315.73047 c 0,4.71485 -3.82422,8.53516 -8.53516,8.53516 z m -93.86719,-17.06641 85.33203,0 0,-307.19922 -85.33203,0 z m 0,0"
       id="path74"
       style="fill:#000000"
       inkscape:connector-curvature="0" />
    <path
       d="m 256,221.86719 -204.800781,0 c -4.710938,0 -8.53125,-3.82032 -8.53125,-8.53516 0,-4.71094 3.820312,-8.53125 8.53125,-8.53125 l 204.800781,0 c 4.71094,0 8.53516,3.82031 8.53516,8.53125 0,4.71484 -3.82422,8.53516 -8.53516,8.53516 z m 0,0"
       id="path76"
       style="fill:#000000"
       inkscape:connector-curvature="0" />
    <path
       d="m 256,187.73437 -204.800781,0 c -4.710938,0 -8.53125,-3.82031 -8.53125,-8.53515 0,-4.71094 3.820312,-8.53125 8.53125,-8.53125 l 204.800781,0 c 4.71094,0 8.53516,3.82031 8.53516,8.53125 0,4.71484 -3.82422,8.53515 -8.53516,8.53515 z m 0,0"
       id="path78"
       style="fill:#000000"
       inkscape:connector-curvature="0" />
    <path
       d="m 85.332031,221.86719 c -4.710937,0 -8.53125,-3.82032 -8.53125,-8.53516 l 0,-68.26562 c 0,-4.71094 3.820313,-8.53125 8.53125,-8.53125 4.714844,0 8.535157,3.82031 8.535157,8.53125 l 0,68.26562 c 0,4.71484 -3.820313,8.53516 -8.535157,8.53516 z m 0,0"
       id="path80"
       style="fill:#000000"
       inkscape:connector-curvature="0" />
    <path
       d="m 119.46484,221.86719 c -4.71093,0 -8.53125,-3.82032 -8.53125,-8.53516 l 0,-68.26562 c 0,-4.71094 3.82032,-8.53125 8.53125,-8.53125 4.71485,0 8.53516,3.82031 8.53516,8.53125 l 0,68.26562 c 0,4.71484 -3.82031,8.53516 -8.53516,8.53516 z m 0,0"
       id="path82"
       style="fill:#000000"
       inkscape:connector-curvature="0" />
    <path
       d="m 187.73437,221.86719 c -4.71484,0 -8.53515,-3.82032 -8.53515,-8.53516 l 0,-68.26562 c 0,-4.71094 3.82031,-8.53125 8.53515,-8.53125 4.71094,0 8.53125,3.82031 8.53125,8.53125 l 0,68.26562 c 0,4.71484 -3.82031,8.53516 -8.53125,8.53516 z m 0,0"
       id="path84"
       style="fill:#000000"
       inkscape:connector-curvature="0" />
    <path
       d="m 221.86719,221.86719 c -4.71485,0 -8.53516,-3.82032 -8.53516,-8.53516 l 0,-68.26562 c 0,-4.71094 3.82031,-8.53125 8.53516,-8.53125 4.71093,0 8.53125,3.82031 8.53125,8.53125 l 0,68.26562 c 0,4.71484 -3.82032,8.53516 -8.53125,8.53516 z m 0,0"
       id="path86"
       style="fill:#000000"
       inkscape:connector-curvature="0" />
    <path
       d="m 25.601562,93.867188 c -4.714843,0 -8.535156,-3.820313 -8.535156,-8.535157 l 0,-8.53125 C 17.078125,67.378906 24.714844,59.746094 34.132812,59.734375 34.144531,50.3125 41.78125,42.679688 51.199219,42.667969 l 102.402341,0 c 4.71094,0 8.53125,3.820312 8.53125,8.53125 0,4.714843 -3.82031,8.535156 -8.53125,8.535156 l -102.402341,0 C 51.1875,69.152344 43.554688,76.789062 34.132812,76.800781 l 0,8.53125 c 0,4.714844 -3.820312,8.535157 -8.53125,8.535157 z m 0,0"
       id="path88"
       style="fill:#000000"
       inkscape:connector-curvature="0" />
    <path
       d="m 283.20156,93.867188 c -4.71484,0 -8.53515,-3.820313 -8.53515,-8.535157 l 0,-8.53125 C 265.24453,76.789062 257.61172,69.152344 257.6,59.734375 l -102.39844,0 c -4.71484,0 -8.53515,-3.820313 -8.53515,-8.535156 0,-4.710938 3.82031,-8.53125 8.53515,-8.53125 l 102.39844,0 c 9.42187,0.01172 17.05469,7.644531 17.06641,17.066406 9.42187,0.01172 17.05468,7.644531 17.0664,17.066406 l 0,8.53125 c 0,4.714844 -3.82031,8.535157 -8.53125,8.535157 z m 0,0"
       id="path90"
       style="fill:#000000"
       inkscape:connector-curvature="0" />
    <path
       d="m 170.66797,59.734375 -34.13281,0 C 131.82031,59.734375 128,55.914062 128,51.199219 l 0,-25.597657 C 128,11.460938 139.46094,0 153.60156,0 c 14.13672,0 25.59766,11.460938 25.59766,25.601562 l 0,25.597657 c 0,4.714843 -3.82031,8.535156 -8.53125,8.535156 z m -25.60156,-17.066406 17.0664,0 0,-17.066407 c 0,-4.714843 -3.82031,-8.535156 -8.53125,-8.535156 -4.71484,0 -8.53515,3.820313 -8.53515,8.535156 z m 0,0"
       id="path92"
       style="fill:#000000"
       inkscape:connector-curvature="0" />
    <path
       d="m 119.46484,298.66797 -34.132809,0 c -9.417969,-0.0156 -17.050781,-7.64844 -17.066406,-17.06641 l 0,-34.13672 c 0.01563,-9.41797 7.648437,-17.05078 17.066406,-17.0664 l 34.132809,0 c 9.42188,0.0156 17.05469,7.64843 17.07032,17.0664 l 0,34.13672 c -0.0156,9.41797 -7.64844,17.05078 -17.07032,17.06641 z m -34.132809,-51.20313 0,34.13672 34.152349,0 -0.0195,-34.13672 z m 0,0"
       id="path94"
       style="fill:#000000"
       inkscape:connector-curvature="0" />
    <path
       d="m 119.46484,375.46484 -34.132809,0 c -9.417969,-0.0117 -17.050781,-7.64453 -17.066406,-17.0664 l 0,-34.13281 c 0.01563,-9.41797 7.648437,-17.05469 17.066406,-17.06641 l 34.132809,0 c 9.42188,0.0117 17.05469,7.64844 17.07032,17.06641 l 0,34.13281 c -0.0156,9.42187 -7.64844,17.05469 -17.07032,17.0664 z m -34.132809,-51.19922 0,34.13282 34.152349,0 -0.0195,-34.13282 z m 0,0"
       id="path96"
       style="fill:#000000"
       inkscape:connector-curvature="0" />
    <path
       d="m 119.46484,452.26562 -34.132809,0 c -9.417969,-0.0117 -17.050781,-7.64453 -17.066406,-17.0664 l 0,-34.13281 C 68.28125,391.64453 75.914062,384.01172 85.332031,384 l 34.132809,0 c 9.42188,0.0117 17.05469,7.64453 17.07032,17.06641 l 0,34.13281 c -0.0156,9.42187 -7.64844,17.05469 -17.07032,17.0664 z m -34.132809,-51.19921 0,34.13281 34.152349,0 -0.0195,-34.13281 z m 0,0"
       id="path98"
       style="fill:#000000"
       inkscape:connector-curvature="0" />
    <path
       d="m 221.10016,298.66797 -34.13282,0 c -9.42187,-0.0156 -17.05468,-7.64844 -17.0664,-17.06641 l 0,-34.13672 c 0.0117,-9.41797 7.64453,-17.05078 17.0664,-17.0664 l 34.13282,0 c 9.41797,0.0156 17.05468,7.64843 17.0664,17.0664 l 0,34.13672 c -0.0117,9.41797 -7.64843,17.05078 -17.0664,17.06641 z m -34.13282,-51.20313 0,34.13672 34.14844,0 -0.0156,-34.13672 z m 0,0"
       id="path100"
       style="fill:#000000"
       inkscape:connector-curvature="0" />
    <path
       d="m 221.8497,375.46484 -34.13282,0 c -9.42187,-0.0117 -17.05468,-7.64453 -17.0664,-17.0664 l 0,-34.13281 c 0.0117,-9.41797 7.64453,-17.05469 17.0664,-17.06641 l 34.13282,0 c 9.41797,0.0117 17.05468,7.64844 17.0664,17.06641 l 0,34.13281 c -0.0117,9.42187 -7.64843,17.05469 -17.0664,17.0664 z m -34.13282,-51.19922 0,34.13282 34.14844,0 -0.0156,-34.13282 z m 0,0"
       id="path102"
       style="fill:#000000"
       inkscape:connector-curvature="0" />
    <path
       d="m 221.86719,452.26562 -34.13282,0 c -9.42187,-0.0117 -17.05468,-7.64453 -17.0664,-17.0664 l 0,-34.13281 c 0.0117,-9.42188 7.64453,-17.05469 17.0664,-17.06641 l 34.13282,0 c 9.41797,0.0117 17.05468,7.64453 17.0664,17.06641 l 0,34.13281 c -0.0117,9.42187 -7.64843,17.05469 -17.0664,17.0664 z m -34.13282,-51.19921 0,34.13281 34.14844,0 -0.0156,-34.13281 z m 0,0"
       id="path104"
       style="fill:#000000"
       inkscape:connector-curvature="0" />
  </g>
</svg>
